<svg id="Capa_1" enable-background="new 0 0 512.709 512.709" height="512" viewBox="0 0 512.709 512.709" width="512" xmlns="http://www.w3.org/2000/svg"><g id="XMLID_142_"><path d="m136.309 144.878s-18.468-81.359-109.852-111.129c0 0 19.366 57.423-.996 121.059-22.524 70.388-18.135 146.804 14.846 212.941 8.75 17.547 18.731 34.649 30.015 50.009z" fill="#c7eb4b"/><path d="m371.084 308.626c28.875 6.44 67.571 23.039 98.753 64.84 0 0-60.6.043-114.364 39.713-59.468 43.879-133.265 64.193-206.481 54.129-19.426-2.67-47.672-10.789-65.837-16.56l153.975-194.719z" fill="#76dd00"/><path d="m83.156 450.748c75.736 2.279 154.429-57.765 154.429-57.765l7.353-59.867 73.527 22.053c177.516-135.061 160.222-308.456 160.222-308.456s-84.115-67.41-217.993-40.274l1.05 61.973-59.872-3.151s-207.999 200.619-118.716 385.487z" fill="#76dd00"/><path id="XMLID_1495_" d="m318.465 355.166-73.53-22.05-7.35 59.87s-78.69 60.04-154.43 57.76c-2.55-5.27-4.85-10.56-6.93-15.85 86.586-138.005 172.36-232.6 248.25-290.1 86.72-65.71 150.28-96.73 151.38-97.2h.01l2.82-.88c0 0 17.3 173.39-160.22 308.45z" fill="#00c200"/><path id="XMLID_382_" d="m76.332 512.709-28.815-8.348c.803-2.777 20.395-69.083 84.484-162.202 37.424-54.374 82.412-106.731 133.716-155.618 64.005-60.99 138.086-116.731 220.188-165.676l15.361 25.769c-180.741 107.75-286.645 228.727-343.659 311.24-61.776 89.401-81.088 154.191-81.275 154.835z" fill="#c7eb4b"/><path id="XMLID_383_" d="m76.332 512.709-28.815-8.348c.803-2.777 20.395-69.083 84.484-162.202 37.424-54.374 82.412-106.731 133.716-155.618 64.005-60.99 138.086-116.731 220.188-165.676l15.361 25.769c-180.741 107.75-286.645 228.727-343.659 311.24-61.776 89.401-81.088 154.191-81.275 154.835z" fill="#c7eb4b"/><path id="XMLID_488_" d="m501.265 46.636c-180.74 107.75-286.64 228.72-343.66 311.24-61.77 89.4-81.09 154.19-81.27 154.83l-14.44-4.18c8-22.97 30-80.05 79.01-152.6 36.95-54.69 82.48-107.44 133.36-156.77 63.45-61.52 137.01-116.89 218.65-166.53z" fill="#76dd00"/></g></svg>
